<?xml version="1.0" encoding="UTF-8" standalone="no"?>
<!DOCTYPE svg PUBLIC "-//W3C//DTD SVG 1.1//EN" "http://www.w3.org/Graphics/SVG/1.1/DTD/svg11.dtd">
<svg width="100%" height="100%" viewBox="0 0 123 38" version="1.1" xmlns="http://www.w3.org/2000/svg" xmlns:xlink="http://www.w3.org/1999/xlink" xml:space="preserve" xmlns:serif="http://www.serif.com/" style="fill-rule:evenodd;clip-rule:evenodd;stroke-linejoin:round;stroke-miterlimit:2;">
    <g transform="matrix(1,0,0,1,-580.665,-124.394)">
        <g transform="matrix(1,0,0,1,40.5,-91)">
            <g transform="matrix(1,0,0,1,255.369,115.394)">
                <path d="M332.391,121.641C332.547,121.328 332.625,121.156 332.625,121.125C332.781,120.75 332.938,120.516 333.094,120.422C333.063,120.234 333.078,120.047 333.141,119.859C333.203,119.672 333.266,119.5 333.328,119.344C333.328,119.219 333.359,119.031 333.422,118.781C333.547,118.437 333.625,118.234 333.656,118.172C333.688,118.109 333.703,118.047 333.703,117.984L333.891,117.469C333.984,117.125 334.023,116.906 334.008,116.813C333.992,116.719 334,116.641 334.031,116.578C334.125,116.297 334.164,116.125 334.148,116.063C334.133,116 334.156,115.969 334.219,115.969C334.188,115.719 334.188,115.555 334.219,115.477C334.25,115.398 334.281,115.328 334.313,115.266C334.344,115.141 334.367,115.016 334.383,114.891C334.398,114.766 334.438,114.641 334.5,114.516C334.563,114.266 334.602,114.078 334.617,113.953C334.633,113.828 334.656,113.688 334.688,113.531C334.781,113.094 334.828,112.875 334.828,112.875C334.891,112.594 334.922,112.391 334.922,112.266C334.922,112.141 334.938,112 334.969,111.844C335.094,111.469 335.156,111.281 335.156,111.281C335.188,111.125 335.227,111.008 335.273,110.93C335.32,110.852 335.328,110.766 335.297,110.672C335.453,110.328 335.531,110.094 335.531,109.969C335.531,109.844 335.547,109.688 335.578,109.5C335.641,109.094 335.672,108.836 335.672,108.727C335.672,108.617 335.688,108.484 335.719,108.328C335.719,108.234 335.727,108.141 335.742,108.047C335.758,107.953 335.781,107.844 335.813,107.719C335.906,107.25 335.977,106.945 336.023,106.805C336.07,106.664 336.063,106.531 336,106.406C336.188,106.062 336.266,105.859 336.234,105.797C336.203,105.734 336.203,105.656 336.234,105.563C336.328,105.375 336.383,105.227 336.398,105.117C336.414,105.008 336.438,104.906 336.469,104.813C336.5,104.75 336.516,104.672 336.516,104.578C336.516,104.484 336.531,104.391 336.563,104.297C336.625,104.141 336.656,103.938 336.656,103.688C336.656,103.437 336.672,103.188 336.703,102.938C336.703,102.687 336.711,102.547 336.727,102.516C336.742,102.484 336.75,102.453 336.75,102.422C336.781,102.109 336.906,101.766 337.125,101.391C337.469,101.141 337.68,100.992 337.758,100.945C337.836,100.898 337.953,100.875 338.109,100.875C338.516,100.938 338.766,100.984 338.859,101.016C339.141,101.016 339.313,101.031 339.375,101.063C339.438,101.094 339.5,101.109 339.563,101.109C339.875,101.172 340.063,101.203 340.125,101.203C340.188,101.203 340.25,101.234 340.313,101.297C340.406,101.297 340.508,101.289 340.617,101.273C340.727,101.258 340.828,101.266 340.922,101.297C341.266,101.328 341.461,101.328 341.508,101.297C341.555,101.266 341.609,101.25 341.672,101.25C341.984,101.281 342.164,101.289 342.211,101.273C342.258,101.258 342.313,101.266 342.375,101.297C342.75,101.359 342.945,101.383 342.961,101.367C342.977,101.352 343.031,101.328 343.125,101.297C343.344,101.359 343.531,101.375 343.688,101.344C343.844,101.313 344,101.328 344.156,101.391C344.531,101.422 344.727,101.453 344.742,101.484C344.758,101.516 344.797,101.531 344.859,101.531C345.078,101.625 345.195,101.703 345.211,101.766C345.227,101.828 345.266,101.891 345.328,101.953C345.391,102.203 345.422,102.406 345.422,102.563C345.453,102.844 345.461,103.102 345.445,103.336C345.43,103.57 345.344,103.766 345.188,103.922C345.188,104.203 345.141,104.438 345.047,104.625C344.953,105.281 344.797,105.828 344.578,106.266C344.422,106.484 344.344,106.641 344.344,106.734C344.344,106.828 344.297,106.906 344.203,106.969C344.141,107.25 344.086,107.492 344.039,107.695C343.992,107.898 343.953,108.141 343.922,108.422C343.828,108.516 343.766,108.633 343.734,108.773C343.703,108.914 343.656,109.078 343.594,109.266C343.5,109.609 343.422,109.875 343.359,110.063C343.297,110.313 343.266,110.484 343.266,110.578C343.141,110.828 343.07,111 343.055,111.094C343.039,111.188 343.031,111.266 343.031,111.328C342.938,111.641 342.883,111.844 342.867,111.938C342.852,112.031 342.813,112.141 342.75,112.266C342.625,112.609 342.516,112.922 342.422,113.203C342.359,113.328 342.32,113.445 342.305,113.555C342.289,113.664 342.25,113.781 342.188,113.906C342.063,114.188 341.969,114.484 341.906,114.797C341.844,115.109 341.766,115.406 341.672,115.688C341.609,115.844 341.555,115.977 341.508,116.086C341.461,116.195 341.406,116.328 341.344,116.484C341.313,116.609 341.297,116.781 341.297,117C341.203,117.25 341.164,117.406 341.18,117.469C341.195,117.531 341.172,117.609 341.109,117.703C341.109,117.766 341.078,117.844 341.016,117.938C340.953,118.031 340.906,118.109 340.875,118.172C340.813,118.609 340.766,118.875 340.734,118.969C340.703,119.125 340.688,119.273 340.688,119.414C340.688,119.555 340.672,119.703 340.641,119.859C340.609,119.953 340.578,120.055 340.547,120.164C340.516,120.273 340.484,120.375 340.453,120.469C340.391,120.594 340.359,120.727 340.359,120.867C340.359,121.008 340.344,121.156 340.313,121.313C340.25,121.469 340.219,121.602 340.219,121.711C340.219,121.82 340.203,121.906 340.172,121.969C340.141,122.094 340.102,122.203 340.055,122.297C340.008,122.391 340.016,122.5 340.078,122.625C340.016,122.688 339.984,122.773 339.984,122.883C339.984,122.992 339.953,123.094 339.891,123.188C339.797,123.5 339.758,123.703 339.773,123.797C339.789,123.891 339.781,123.984 339.75,124.078C339.625,124.453 339.57,124.656 339.586,124.688C339.602,124.719 339.594,124.766 339.563,124.828C339.469,125.141 339.422,125.359 339.422,125.484C339.422,125.609 339.391,125.734 339.328,125.859C339.234,126.266 339.188,126.516 339.188,126.609C339.188,126.703 339.172,126.781 339.141,126.844C339.109,126.906 339.078,126.984 339.047,127.078C339.016,127.172 338.969,127.25 338.906,127.313C338.844,127.5 338.82,127.641 338.836,127.734C338.852,127.828 338.844,127.922 338.813,128.016C338.688,128.328 338.625,128.523 338.625,128.602C338.625,128.68 338.594,128.75 338.531,128.813C338.594,128.969 338.602,129.125 338.555,129.281C338.508,129.438 338.453,129.594 338.391,129.75C338.328,129.875 338.281,130 338.25,130.125C338.219,130.25 338.172,130.391 338.109,130.547C337.984,130.922 337.914,131.141 337.898,131.203C337.883,131.266 337.891,131.328 337.922,131.391C337.797,131.516 337.703,131.734 337.641,132.047L337.5,132.75C337.406,132.969 337.352,133.102 337.336,133.148C337.32,133.195 337.313,133.234 337.313,133.266C337.156,133.672 337.039,133.93 336.961,134.039C336.883,134.148 336.859,134.281 336.891,134.438C336.766,134.531 336.695,134.688 336.68,134.906C336.664,135.125 336.656,135.312 336.656,135.469C336.594,135.531 336.523,135.602 336.445,135.68C336.367,135.758 336.297,135.844 336.234,135.938C336.016,136.094 335.867,136.195 335.789,136.242C335.711,136.289 335.641,136.328 335.578,136.359C335.266,136.422 335.094,136.461 335.063,136.477C335.031,136.492 334.984,136.516 334.922,136.547C334.578,136.609 334.234,136.594 333.891,136.5C333.734,136.562 333.625,136.578 333.563,136.547C333.5,136.516 333.391,136.531 333.234,136.594C333.016,136.531 332.781,136.508 332.531,136.523C332.281,136.539 332.063,136.578 331.875,136.641C331.688,136.578 331.477,136.555 331.242,136.57C331.008,136.586 330.75,136.562 330.469,136.5C330.375,136.469 330.281,136.43 330.188,136.383C330.094,136.336 329.984,136.328 329.859,136.359C329.641,136.109 329.508,135.977 329.461,135.961C329.414,135.945 329.359,135.922 329.297,135.891C329.234,135.641 329.156,135.484 329.063,135.422C329,135.203 328.922,135.016 328.828,134.859C328.734,134.703 328.656,134.531 328.594,134.344C328.563,134.187 328.516,133.984 328.453,133.734C328.359,133.422 328.297,133.234 328.266,133.172C328.203,132.984 328.156,132.836 328.125,132.727C328.094,132.617 328.063,132.516 328.031,132.422C327.875,131.984 327.781,131.703 327.75,131.578C327.719,131.453 327.688,131.313 327.656,131.156C327.594,130.844 327.531,130.563 327.469,130.313C327.313,130.031 327.227,129.813 327.211,129.656C327.195,129.5 327.156,129.391 327.094,129.328C326.906,128.891 326.781,128.516 326.719,128.203C326.656,127.891 326.578,127.609 326.484,127.359C326.297,126.984 326.203,126.758 326.203,126.68C326.203,126.602 326.188,126.516 326.156,126.422C326.125,126.359 326.094,126.273 326.063,126.164C326.031,126.055 325.984,125.969 325.922,125.906C325.891,125.531 325.859,125.297 325.828,125.203C325.703,124.891 325.641,124.656 325.641,124.5C325.578,124.219 325.516,124.039 325.453,123.961C325.391,123.883 325.391,123.813 325.453,123.75C325.391,123.687 325.344,123.602 325.313,123.492C325.281,123.383 325.234,123.281 325.172,123.188C325.109,122.906 325.047,122.695 324.984,122.555C324.922,122.414 324.859,122.266 324.797,122.109C324.797,121.922 324.773,121.75 324.727,121.594C324.68,121.437 324.625,121.281 324.563,121.125C324.469,120.781 324.391,120.578 324.328,120.516C324.297,120.328 324.219,120.078 324.094,119.766C324.063,119.672 324.031,119.578 324,119.484C323.969,119.391 323.969,119.297 324,119.203C323.875,118.984 323.789,118.844 323.742,118.781C323.695,118.719 323.672,118.656 323.672,118.594C323.609,118.281 323.547,118.031 323.484,117.844C323.422,117.687 323.367,117.539 323.32,117.398C323.273,117.258 323.234,117.109 323.203,116.953C323.047,116.797 322.938,116.641 322.875,116.484C322.813,116.328 322.734,116.172 322.641,116.016C322.578,116.109 322.539,116.211 322.523,116.32C322.508,116.43 322.484,116.547 322.453,116.672C322.453,116.766 322.438,116.875 322.406,117C322.375,117.125 322.344,117.234 322.313,117.328L322.031,118.594C321.969,118.75 321.938,118.93 321.938,119.133C321.938,119.336 321.906,119.516 321.844,119.672C321.781,119.922 321.734,120.07 321.703,120.117C321.672,120.164 321.656,120.219 321.656,120.281C321.594,120.594 321.539,120.797 321.492,120.891C321.445,120.984 321.422,121.094 321.422,121.219C321.391,121.281 321.383,121.359 321.398,121.453C321.414,121.547 321.422,121.641 321.422,121.734C321.453,121.797 321.414,121.922 321.305,122.109C321.195,122.297 321.188,122.453 321.281,122.578C321.219,122.641 321.188,122.727 321.188,122.836C321.188,122.945 321.156,123.047 321.094,123.141C320.969,123.484 320.914,123.695 320.93,123.773C320.945,123.852 320.938,123.938 320.906,124.031L320.719,124.781C320.625,125.094 320.578,125.313 320.578,125.438C320.578,125.562 320.547,125.688 320.484,125.813C320.453,125.906 320.438,125.992 320.438,126.07C320.438,126.148 320.422,126.234 320.391,126.328C320.297,126.828 320.203,127.141 320.109,127.266C320.016,127.453 319.984,127.594 320.016,127.688C320.047,127.781 320.047,127.875 320.016,127.969C319.891,128.313 319.828,128.516 319.828,128.578C319.828,128.641 319.797,128.703 319.734,128.766C319.797,128.953 319.805,129.117 319.758,129.258C319.711,129.398 319.656,129.547 319.594,129.703C319.5,129.953 319.391,130.234 319.266,130.547C319.141,130.922 319.078,131.187 319.078,131.344C318.953,131.469 318.859,131.688 318.797,132L318.656,132.75C318.5,133.125 318.422,133.328 318.422,133.359C318.422,133.391 318.406,133.422 318.375,133.453C318.281,133.703 318.203,133.883 318.141,133.992C318.078,134.102 318.047,134.234 318.047,134.391C317.953,134.484 317.898,134.641 317.883,134.859C317.867,135.078 317.859,135.266 317.859,135.422C317.641,135.578 317.5,135.75 317.438,135.938C317.219,136.062 317.063,136.156 316.969,136.219C316.875,136.281 316.797,136.328 316.734,136.359C316.422,136.391 316.258,136.414 316.242,136.43C316.227,136.445 316.188,136.469 316.125,136.5C315.969,136.531 315.797,136.547 315.609,136.547C315.422,136.547 315.25,136.516 315.094,136.453C314.938,136.516 314.82,136.531 314.742,136.5C314.664,136.469 314.547,136.484 314.391,136.547C314.203,136.484 313.984,136.461 313.734,136.477C313.484,136.492 313.266,136.531 313.078,136.594C312.859,136.531 312.633,136.508 312.398,136.523C312.164,136.539 311.922,136.516 311.672,136.453C311.578,136.422 311.484,136.383 311.391,136.336C311.297,136.289 311.188,136.281 311.063,136.313C310.813,136.062 310.664,135.938 310.617,135.938C310.57,135.938 310.516,135.906 310.453,135.844C310.391,135.625 310.313,135.469 310.219,135.375C310.156,135.156 310.086,134.969 310.008,134.813C309.93,134.656 309.859,134.484 309.797,134.297C309.734,134.203 309.703,134.102 309.703,133.992C309.703,133.883 309.688,133.781 309.656,133.688C309.563,133.375 309.5,133.188 309.469,133.125C309.406,132.938 309.359,132.789 309.328,132.68C309.297,132.57 309.266,132.469 309.234,132.375C308.984,131.781 308.844,131.359 308.813,131.109C308.75,130.953 308.719,130.812 308.719,130.688C308.719,130.563 308.688,130.437 308.625,130.313C308.469,130.031 308.383,129.805 308.367,129.633C308.352,129.461 308.313,129.344 308.25,129.281C308.094,128.844 307.977,128.477 307.898,128.18C307.82,127.883 307.734,127.609 307.641,127.359C307.484,126.953 307.406,126.711 307.406,126.633C307.406,126.555 307.391,126.469 307.359,126.375C307.328,126.312 307.297,126.227 307.266,126.117C307.234,126.008 307.188,125.922 307.125,125.859C307.094,125.484 307.063,125.25 307.031,125.156L306.797,124.5C306.734,124.219 306.672,124.031 306.609,123.938C306.547,123.844 306.547,123.766 306.609,123.703C306.547,123.641 306.5,123.555 306.469,123.445C306.438,123.336 306.391,123.234 306.328,123.141C306.234,122.672 306.125,122.328 306,122.109C306,121.891 305.977,121.711 305.93,121.57C305.883,121.43 305.828,121.281 305.766,121.125C305.672,120.75 305.594,120.531 305.531,120.469C305.5,120.281 305.461,120.141 305.414,120.047C305.367,119.953 305.328,119.844 305.297,119.719C305.266,119.625 305.234,119.531 305.203,119.438C305.172,119.344 305.172,119.25 305.203,119.156C304.953,118.906 304.828,118.703 304.828,118.547C304.766,118.297 304.727,118.125 304.711,118.031C304.695,117.938 304.672,117.859 304.641,117.797C304.578,117.641 304.523,117.5 304.477,117.375C304.43,117.25 304.391,117.094 304.359,116.906C304.203,116.656 304.063,116.406 303.938,116.156C303.875,115.906 303.82,115.727 303.773,115.617C303.727,115.508 303.688,115.406 303.656,115.313C303.5,114.969 303.422,114.766 303.422,114.703C303.359,114.391 303.313,114.195 303.281,114.117C303.25,114.039 303.219,113.969 303.188,113.906C303.125,113.75 303.078,113.609 303.047,113.484C303.016,113.359 302.969,113.234 302.906,113.109C302.781,112.703 302.703,112.437 302.672,112.313C302.516,112.094 302.391,111.734 302.297,111.234C302.203,110.859 302.141,110.625 302.109,110.531C302.078,110.438 302.047,110.344 302.016,110.25C301.922,110.094 301.883,109.984 301.898,109.922C301.914,109.859 301.906,109.797 301.875,109.734C301.781,109.453 301.703,109.281 301.641,109.219L301.641,108.703C301.578,108.641 301.555,108.547 301.57,108.422C301.586,108.297 301.547,108.203 301.453,108.141C301.453,108.047 301.438,107.953 301.406,107.859C301.375,107.766 301.344,107.688 301.313,107.625C301.188,107.281 301.117,107.078 301.102,107.016C301.086,106.953 301.031,106.906 300.938,106.875C301,106.812 301.008,106.727 300.961,106.617C300.914,106.508 300.875,106.422 300.844,106.359C300.688,106.016 300.609,105.781 300.609,105.656C300.547,105.469 300.508,105.312 300.492,105.188C300.477,105.063 300.453,104.953 300.422,104.859C300.359,104.609 300.297,104.422 300.234,104.297C300.047,103.891 299.938,103.641 299.906,103.547C299.875,103.453 299.844,103.344 299.813,103.219C299.719,102.844 299.656,102.625 299.625,102.563C299.625,102.312 299.609,102.156 299.578,102.094C299.547,102.031 299.531,101.969 299.531,101.906C299.719,101.625 299.836,101.477 299.883,101.461C299.93,101.445 299.969,101.406 300,101.344L300.797,101.297C301.109,101.328 301.391,101.313 301.641,101.25C301.891,101.187 302.141,101.156 302.391,101.156C302.703,101.187 302.875,101.203 302.906,101.203C303.219,101.234 303.391,101.25 303.422,101.25C303.516,101.25 303.609,101.242 303.703,101.227C303.797,101.211 303.938,101.187 304.125,101.156C304.344,101.063 304.469,101.039 304.5,101.086C304.531,101.133 304.578,101.141 304.641,101.109C304.797,101.016 304.922,101 305.016,101.063C305.109,101.125 305.188,101.094 305.25,100.969C305.406,101.063 305.547,101.094 305.672,101.063C305.797,101.031 305.938,101.047 306.094,101.109C306.406,101.172 306.578,101.203 306.609,101.203C306.766,101.234 306.93,101.242 307.102,101.227C307.273,101.211 307.422,101.234 307.547,101.297C307.891,101.266 308.047,101.289 308.016,101.367C307.984,101.445 308,101.484 308.063,101.484C308.219,101.734 308.328,101.891 308.391,101.953C308.453,102.016 308.516,102.078 308.578,102.141C308.578,102.422 308.602,102.609 308.648,102.703C308.695,102.797 308.719,102.891 308.719,102.984C308.75,103.141 308.766,103.258 308.766,103.336C308.766,103.414 308.781,103.531 308.813,103.688C308.875,103.844 308.914,103.977 308.93,104.086C308.945,104.195 308.984,104.297 309.047,104.391L309.047,104.789C309.047,104.898 309.063,105.031 309.094,105.188C309.156,105.344 309.203,105.461 309.234,105.539C309.266,105.617 309.281,105.687 309.281,105.75C309.406,106.062 309.461,106.273 309.445,106.383C309.43,106.492 309.438,106.594 309.469,106.688C309.5,106.75 309.539,106.828 309.586,106.922C309.633,107.016 309.656,107.109 309.656,107.203C309.719,107.609 309.781,107.875 309.844,108C309.906,108.25 309.945,108.422 309.961,108.516C309.977,108.609 310,108.719 310.031,108.844C310.094,108.938 310.133,109.039 310.148,109.148C310.164,109.258 310.203,109.344 310.266,109.406C310.234,109.563 310.25,109.734 310.313,109.922C310.375,110.109 310.438,110.281 310.5,110.438C310.625,110.75 310.68,110.969 310.664,111.094C310.648,111.219 310.672,111.328 310.734,111.422C310.922,111.734 311.023,111.961 311.039,112.102C311.055,112.242 311.094,112.391 311.156,112.547C311.219,112.828 311.313,113.102 311.438,113.367C311.563,113.633 311.625,113.922 311.625,114.234C311.781,114.578 311.859,114.82 311.859,114.961L311.859,115.313C311.953,115.625 312,115.797 312,115.828C312,115.859 312.031,115.906 312.094,115.969C312.188,116.344 312.227,116.562 312.211,116.625C312.195,116.688 312.203,116.766 312.234,116.859C312.359,117.109 312.414,117.266 312.398,117.328C312.383,117.391 312.391,117.453 312.422,117.516C312.484,117.828 312.523,118.039 312.539,118.148C312.555,118.258 312.609,118.344 312.703,118.406C312.891,118.906 313,119.352 313.031,119.742C313.063,120.133 313.156,120.453 313.313,120.703C313.375,120.984 313.414,121.188 313.43,121.313C313.445,121.437 313.5,121.531 313.594,121.594C313.75,121.375 313.828,121.188 313.828,121.031C313.984,120.719 314.125,120.5 314.25,120.375C314.219,120.188 314.234,120.008 314.297,119.836C314.359,119.664 314.406,119.5 314.438,119.344C314.469,119.25 314.492,119.148 314.508,119.039C314.523,118.93 314.547,118.828 314.578,118.734C314.703,118.391 314.781,118.188 314.813,118.125C314.844,118.062 314.859,118 314.859,117.938C314.922,117.594 315,117.422 315.094,117.422C315.188,117.109 315.227,116.898 315.211,116.789C315.195,116.68 315.203,116.594 315.234,116.531C315.328,116.25 315.367,116.078 315.352,116.016C315.336,115.953 315.359,115.922 315.422,115.922C315.391,115.672 315.391,115.516 315.422,115.453C315.453,115.391 315.484,115.313 315.516,115.219C315.547,115.125 315.57,115.008 315.586,114.867C315.602,114.727 315.641,114.609 315.703,114.516C315.734,114.234 315.766,114.031 315.797,113.906C315.828,113.781 315.859,113.656 315.891,113.531C315.984,113.187 316.023,112.992 316.008,112.945C315.992,112.898 316,112.859 316.031,112.828C316.094,112.578 316.125,112.383 316.125,112.242C316.125,112.102 316.141,111.953 316.172,111.797L316.313,111.234C316.344,111.109 316.383,111 316.43,110.906C316.477,110.813 316.484,110.734 316.453,110.672C316.609,110.297 316.688,110.047 316.688,109.922C316.688,109.797 316.703,109.656 316.734,109.5L316.828,108.281L316.969,107.719C317.063,107.594 317.109,107.422 317.109,107.203C317.141,107.047 317.18,106.898 317.227,106.758C317.273,106.617 317.266,106.484 317.203,106.359C317.359,106.016 317.43,105.805 317.414,105.727C317.398,105.648 317.406,105.578 317.438,105.516C317.531,105.328 317.586,105.18 317.602,105.07C317.617,104.961 317.641,104.859 317.672,104.766C317.766,104.297 317.813,103.977 317.813,103.805C317.813,103.633 317.828,103.453 317.859,103.266C317.891,102.953 317.914,102.781 317.93,102.75C317.945,102.719 317.953,102.687 317.953,102.656L317.953,102.398C317.953,102.289 317.969,102.188 318,102.094C318.125,101.75 318.281,101.516 318.469,101.391C318.75,101.047 318.938,100.875 319.031,100.875C319.375,100.875 319.609,100.891 319.734,100.922C319.859,100.953 320.031,100.969 320.25,100.969C320.625,101.063 320.836,101.094 320.883,101.063C320.93,101.031 321,101.047 321.094,101.109C321.469,101.203 321.711,101.242 321.82,101.227C321.93,101.211 322.031,101.219 322.125,101.25C322.406,101.313 322.555,101.32 322.57,101.273C322.586,101.227 322.625,101.203 322.688,101.203C322.813,101.172 322.938,101.156 323.063,101.156L323.344,101.156C323.625,101.063 323.797,101.039 323.859,101.086C323.922,101.133 323.984,101.109 324.047,101.016C324.203,101.109 324.344,101.148 324.469,101.133C324.594,101.117 324.734,101.109 324.891,101.109C325.234,101.203 325.438,101.25 325.5,101.25L325.945,101.25C326.086,101.25 326.219,101.281 326.344,101.344C326.688,101.281 326.844,101.297 326.813,101.391C326.781,101.484 326.797,101.531 326.859,101.531C327.047,101.75 327.172,101.898 327.234,101.977C327.297,102.055 327.359,102.125 327.422,102.188C327.453,102.469 327.484,102.656 327.516,102.75C327.547,102.844 327.563,102.938 327.563,103.031C327.594,103.156 327.609,103.266 327.609,103.359C327.609,103.453 327.641,103.578 327.703,103.734C327.734,103.859 327.758,103.984 327.773,104.109C327.789,104.234 327.813,104.344 327.844,104.438L327.844,104.813C327.844,104.937 327.859,105.078 327.891,105.234C327.984,105.516 328.039,105.672 328.055,105.703C328.07,105.734 328.078,105.766 328.078,105.797C328.203,106.141 328.258,106.383 328.242,106.523C328.227,106.664 328.25,106.781 328.313,106.875C328.375,107.219 328.414,107.406 328.43,107.438C328.445,107.469 328.453,107.516 328.453,107.578C328.516,107.797 328.594,107.953 328.688,108.047C328.75,108.297 328.781,108.469 328.781,108.563C328.781,108.656 328.813,108.766 328.875,108.891C328.938,109.172 329.016,109.359 329.109,109.453C329.109,109.609 329.133,109.773 329.18,109.945C329.227,110.117 329.281,110.297 329.344,110.484C329.469,110.797 329.523,111.016 329.508,111.141C329.492,111.266 329.516,111.375 329.578,111.469C329.766,111.781 329.867,112.008 329.883,112.148C329.898,112.289 329.922,112.437 329.953,112.594C330.016,112.875 330.109,113.148 330.234,113.414C330.359,113.68 330.422,113.969 330.422,114.281C330.578,114.625 330.656,114.867 330.656,115.008L330.656,115.406C330.75,115.688 330.797,115.844 330.797,115.875C330.797,115.906 330.828,115.953 330.891,116.016C331.016,116.391 331.078,116.609 331.078,116.672C331.078,116.734 331.094,116.813 331.125,116.906C331.219,117.125 331.258,117.273 331.242,117.352C331.227,117.43 331.234,117.5 331.266,117.563C331.328,117.844 331.375,118.039 331.406,118.148C331.438,118.258 331.484,118.359 331.547,118.453C331.703,118.953 331.797,119.391 331.828,119.766C331.859,120.141 331.953,120.453 332.109,120.703C332.172,121.016 332.211,121.234 332.227,121.359C332.242,121.484 332.297,121.578 332.391,121.641Z" style="fill:url(#_Linear1);fill-rule:nonzero;"/>
            </g>
            <g transform="matrix(1,0,0,1,255.369,115.394)">
                <path d="M371.531,133.781C371.406,134.031 371.313,134.18 371.25,134.227C371.188,134.273 371.156,134.344 371.156,134.438C371,134.5 370.859,134.586 370.734,134.695C370.609,134.805 370.469,134.922 370.313,135.047C370.156,135.109 370.023,135.18 369.914,135.258C369.805,135.336 369.703,135.406 369.609,135.469C369.328,135.531 369.109,135.641 368.953,135.797C368.859,135.828 368.773,135.867 368.695,135.914C368.617,135.961 368.547,136.016 368.484,136.078C368.234,136.141 368.078,136.187 368.016,136.219C367.953,136.25 367.891,136.281 367.828,136.313L367.172,136.5C366.953,136.625 366.789,136.703 366.68,136.734C366.57,136.766 366.438,136.766 366.281,136.734C365.906,136.766 365.703,136.789 365.672,136.805C365.641,136.82 365.594,136.828 365.531,136.828C365.25,136.672 365.078,136.602 365.016,136.617C364.953,136.633 364.891,136.609 364.828,136.547C364.734,136.453 364.656,136.359 364.594,136.266C364.531,136.172 364.453,136.078 364.359,135.984C364.266,135.672 364.219,135.5 364.219,135.469C364.125,135.094 364.016,134.813 363.891,134.625C363.828,134.187 363.719,133.844 363.563,133.594L363,133.781C362.5,133.969 362.141,134.156 361.922,134.344C361.734,134.5 361.578,134.609 361.453,134.672C361.297,134.734 361.18,134.766 361.102,134.766C361.023,134.766 360.953,134.797 360.891,134.859C360.516,135.078 360.328,135.188 360.328,135.188L359.133,135.586C359.086,135.602 359.031,135.625 358.969,135.656L358.453,135.891C358.172,135.953 357.984,136.031 357.891,136.125C357.797,136.219 357.656,136.266 357.469,136.266C357.188,136.359 356.922,136.484 356.672,136.641C356.328,136.766 356.055,136.836 355.852,136.852C355.648,136.867 355.438,136.906 355.219,136.969C354.875,137.094 354.688,137.141 354.656,137.109C354.531,137.109 354.43,137.125 354.352,137.156C354.273,137.187 354.188,137.203 354.094,137.203C353.813,137.172 353.617,137.164 353.508,137.18C353.398,137.195 353.313,137.187 353.25,137.156C352.906,137.031 352.695,136.969 352.617,136.969C352.539,136.969 352.469,136.953 352.406,136.922C352.344,136.891 352.258,136.852 352.148,136.805C352.039,136.758 351.953,136.703 351.891,136.641C351.734,136.672 351.602,136.625 351.492,136.5C351.383,136.375 351.281,136.281 351.188,136.219C350.875,136 350.703,135.883 350.672,135.867C350.641,135.852 350.594,135.813 350.531,135.75C350.25,135.531 350.102,135.422 350.086,135.422C350.07,135.422 350.047,135.406 350.016,135.375C349.734,135.063 349.609,134.891 349.641,134.859C349.516,134.797 349.414,134.719 349.336,134.625C349.258,134.531 349.172,134.438 349.078,134.344C348.891,134.187 348.773,134.078 348.727,134.016C348.68,133.953 348.625,133.906 348.563,133.875C348.531,133.688 348.469,133.547 348.375,133.453C348.281,133.359 348.172,133.25 348.047,133.125C347.984,132.969 347.938,132.836 347.906,132.727C347.875,132.617 347.828,132.5 347.766,132.375C347.672,132.094 347.594,131.937 347.531,131.906C347.563,131.562 347.563,131.375 347.531,131.344C347.5,131.313 347.484,131.266 347.484,131.203C347.484,131.078 347.492,130.969 347.508,130.875C347.523,130.781 347.516,130.688 347.484,130.594C347.422,130.375 347.398,130.219 347.414,130.125C347.43,130.031 347.438,129.938 347.438,129.844C347.406,129.656 347.367,129.453 347.32,129.234C347.273,129.016 347.25,128.813 347.25,128.625C347.281,128.531 347.305,128.445 347.32,128.367C347.336,128.289 347.359,128.203 347.391,128.109C347.422,127.922 347.414,127.734 347.367,127.547C347.32,127.359 347.313,127.172 347.344,126.984C347.344,126.891 347.367,126.805 347.414,126.727C347.461,126.648 347.484,126.563 347.484,126.469C347.453,126.312 347.445,126.18 347.461,126.07C347.477,125.961 347.5,125.875 347.531,125.813C347.594,125.594 347.641,125.477 347.672,125.461C347.703,125.445 347.734,125.406 347.766,125.344C347.891,125 347.969,124.812 348,124.781C348.219,124.469 348.344,124.281 348.375,124.219C348.688,123.813 348.875,123.563 348.938,123.469C349.156,123.25 349.375,123.141 349.594,123.141L349.969,122.672C350.25,122.453 350.406,122.344 350.438,122.344C350.719,122.156 350.859,122.055 350.859,122.039C350.859,122.023 350.875,122 350.906,121.969C351.156,121.812 351.305,121.734 351.352,121.734C351.398,121.734 351.422,121.703 351.422,121.641C351.859,121.484 352.125,121.367 352.219,121.289C352.313,121.211 352.422,121.203 352.547,121.266C352.828,120.984 353,120.844 353.063,120.844C353.125,120.844 353.188,120.828 353.25,120.797C353.531,120.609 353.672,120.5 353.672,120.469C353.672,120.438 353.688,120.422 353.719,120.422C353.813,120.359 353.914,120.32 354.023,120.305C354.133,120.289 354.234,120.234 354.328,120.141C354.609,120.016 354.781,119.953 354.844,119.953C354.906,119.953 354.969,119.922 355.031,119.859C355.375,119.766 355.578,119.695 355.641,119.648C355.703,119.602 355.766,119.547 355.828,119.484C356.172,119.359 356.359,119.281 356.391,119.25C356.578,119.156 356.695,119.086 356.742,119.039C356.789,118.992 356.844,118.953 356.906,118.922C357.188,118.859 357.344,118.781 357.375,118.688C357.625,118.594 357.805,118.492 357.914,118.383C358.023,118.273 358.156,118.188 358.313,118.125C358.156,117.75 358.016,117.5 357.891,117.375C357.828,117.156 357.805,117.031 357.82,117C357.836,116.969 357.828,116.922 357.797,116.859C357.703,116.703 357.547,116.609 357.328,116.578C357.141,116.422 357.008,116.32 356.93,116.273C356.852,116.227 356.813,116.25 356.813,116.344C356.75,116.281 356.672,116.258 356.578,116.273C356.484,116.289 356.391,116.297 356.297,116.297L355.523,116.297C355.414,116.297 355.297,116.281 355.172,116.25C354.891,116.25 354.742,116.242 354.727,116.227C354.711,116.211 354.688,116.203 354.656,116.203L354.141,116.25C353.984,116.25 353.859,116.258 353.766,116.273C353.672,116.289 353.531,116.297 353.344,116.297C352.938,116.359 352.711,116.375 352.664,116.344C352.617,116.313 352.531,116.313 352.406,116.344C351.969,116.438 351.75,116.5 351.75,116.531C351.594,116.438 351.422,116.422 351.234,116.484C351.047,116.547 350.859,116.594 350.672,116.625C350.484,116.625 350.336,116.641 350.227,116.672C350.117,116.703 350.031,116.719 349.969,116.719L349.078,116.813C348.859,116.688 348.688,116.625 348.563,116.625C348.375,116.438 348.258,116.344 348.211,116.344C348.164,116.344 348.141,116.313 348.141,116.25C347.922,116 347.781,115.844 347.719,115.781C347.656,115.719 347.609,115.641 347.578,115.547C347.484,115.391 347.414,115.273 347.367,115.195C347.32,115.117 347.281,115.031 347.25,114.938C347.188,114.5 347.141,114.211 347.109,114.07C347.078,113.93 347.078,113.781 347.109,113.625C347.109,113.469 347.125,113.281 347.156,113.063C347.188,112.844 347.141,112.688 347.016,112.594C347.078,112.313 347.094,112.172 347.063,112.172C347.031,112.172 347.016,112.141 347.016,112.078C346.984,111.641 346.945,111.328 346.898,111.141C346.852,110.953 346.844,110.781 346.875,110.625C346.938,110.438 347.023,110.266 347.133,110.109C347.242,109.953 347.328,109.797 347.391,109.641C347.703,109.422 347.867,109.32 347.883,109.336C347.898,109.352 347.938,109.344 348,109.313C348.313,109.25 348.477,109.211 348.492,109.195C348.508,109.18 348.531,109.172 348.563,109.172C348.875,109.141 349.297,109.141 349.828,109.172C350.266,109.234 350.539,109.273 350.648,109.289C350.758,109.305 350.891,109.313 351.047,109.313C351.359,109.281 351.578,109.297 351.703,109.359C351.953,109.422 352.172,109.437 352.359,109.406C352.547,109.375 352.719,109.359 352.875,109.359C353.156,109.391 353.336,109.391 353.414,109.359C353.492,109.328 353.563,109.313 353.625,109.313C354.031,109.344 354.266,109.344 354.328,109.313C354.391,109.281 354.453,109.281 354.516,109.313C354.734,109.281 354.883,109.258 354.961,109.242C355.039,109.227 355.125,109.219 355.219,109.219C355.375,109.25 355.539,109.258 355.711,109.242C355.883,109.227 356.078,109.219 356.297,109.219C356.891,109.188 357.383,109.164 357.773,109.148C358.164,109.133 358.531,109.156 358.875,109.219C359.188,109.25 359.359,109.266 359.391,109.266C359.672,109.297 359.875,109.344 360,109.406C360.125,109.469 360.281,109.469 360.469,109.406C360.656,109.594 360.875,109.656 361.125,109.594C361.281,109.719 361.406,109.797 361.5,109.828C361.594,109.859 361.672,109.906 361.734,109.969C362.078,109.969 362.297,110.047 362.391,110.203C362.641,110.453 362.773,110.586 362.789,110.602C362.805,110.617 362.828,110.625 362.859,110.625C363.016,110.781 363.125,110.906 363.188,111C363.25,111.094 363.313,111.172 363.375,111.234C363.656,111.516 363.789,111.68 363.773,111.727C363.758,111.773 363.781,111.813 363.844,111.844C363.969,112.125 364.109,112.281 364.266,112.313C364.391,112.656 364.477,112.859 364.523,112.922C364.57,112.984 364.609,113.047 364.641,113.109C364.828,113.547 364.953,113.781 365.016,113.813L365.016,114.141C365.016,114.234 365.031,114.312 365.063,114.375C365.188,114.719 365.25,114.969 365.25,115.125C365.344,115.469 365.422,115.719 365.484,115.875C365.672,116.25 365.758,116.484 365.742,116.578C365.727,116.672 365.734,116.766 365.766,116.859C365.859,117.047 365.914,117.18 365.93,117.258C365.945,117.336 365.984,117.406 366.047,117.469L366.234,117.984C366.328,118.297 366.375,118.484 366.375,118.547C366.375,118.609 366.391,118.672 366.422,118.734C366.609,119.109 366.703,119.359 366.703,119.484C366.703,119.609 366.719,119.75 366.75,119.906C366.875,120.219 366.922,120.391 366.891,120.422C366.922,120.766 366.953,121 366.984,121.125C367.016,121.25 367.063,121.344 367.125,121.406C367.281,121.812 367.352,122.07 367.336,122.18C367.32,122.289 367.328,122.406 367.359,122.531C367.422,122.781 367.469,122.984 367.5,123.141C367.563,123.297 367.602,123.438 367.617,123.563C367.633,123.687 367.672,123.813 367.734,123.938C367.891,124.281 367.961,124.453 367.945,124.453C367.93,124.453 367.938,124.469 367.969,124.5C368.031,124.563 368.078,124.648 368.109,124.758C368.141,124.867 368.188,124.984 368.25,125.109C368.375,125.516 368.453,125.766 368.484,125.859C368.641,126.234 368.719,126.422 368.719,126.422C368.813,126.672 368.906,126.938 369,127.219C369.094,127.5 369.188,127.766 369.281,128.016C369.344,128.234 369.398,128.375 369.445,128.438C369.492,128.5 369.531,128.562 369.563,128.625C369.625,128.75 369.664,128.891 369.68,129.047C369.695,129.203 369.734,129.344 369.797,129.469C369.828,129.563 369.867,129.656 369.914,129.75C369.961,129.844 370.016,129.953 370.078,130.078C370.141,130.391 370.211,130.602 370.289,130.711C370.367,130.82 370.406,130.953 370.406,131.109C370.594,131.484 370.703,131.703 370.734,131.766C370.766,131.828 370.781,131.922 370.781,132.047C370.875,132.234 370.945,132.367 370.992,132.445C371.039,132.523 371.094,132.594 371.156,132.656C371.156,132.906 371.219,133.094 371.344,133.219C371.469,133.344 371.531,133.531 371.531,133.781ZM359.391,123.328C359.172,123.516 359.008,123.609 358.898,123.609C358.789,123.609 358.703,123.625 358.641,123.656C358.328,123.813 358.141,123.891 358.078,123.891C358.016,123.891 357.953,123.906 357.891,123.938C357.484,124.188 357.266,124.328 357.234,124.359C357.109,124.453 357.008,124.523 356.93,124.57C356.852,124.617 356.781,124.672 356.719,124.734C356.563,124.797 356.414,124.867 356.273,124.945C356.133,125.023 356,125.125 355.875,125.25C355.563,125.313 355.328,125.445 355.172,125.648C355.016,125.852 354.813,126.031 354.563,126.188C354.375,126.438 354.242,126.586 354.164,126.633C354.086,126.68 354.031,126.734 354,126.797C353.844,127.141 353.75,127.359 353.719,127.453C353.656,127.609 353.617,127.773 353.602,127.945C353.586,128.117 353.578,128.313 353.578,128.531C353.641,128.781 353.664,128.93 353.648,128.977C353.633,129.023 353.625,129.078 353.625,129.141C353.688,129.234 353.719,129.336 353.719,129.445C353.719,129.555 353.734,129.656 353.766,129.75C353.891,130.062 353.977,130.234 354.023,130.266C354.07,130.297 354.109,130.344 354.141,130.406C354.391,130.531 354.523,130.617 354.539,130.664C354.555,130.711 354.594,130.734 354.656,130.734C354.719,130.766 354.797,130.781 354.891,130.781C354.984,130.781 355.078,130.797 355.172,130.828C355.609,130.922 355.914,130.945 356.086,130.898C356.258,130.852 356.422,130.828 356.578,130.828C356.641,130.797 356.711,130.766 356.789,130.734C356.867,130.703 356.969,130.688 357.094,130.688C357.156,130.625 357.242,130.586 357.352,130.57C357.461,130.555 357.563,130.516 357.656,130.453C357.781,130.391 357.914,130.344 358.055,130.313C358.195,130.281 358.344,130.234 358.5,130.172C358.813,130.016 359.008,129.922 359.086,129.891C359.164,129.859 359.234,129.844 359.297,129.844C359.484,129.687 359.602,129.594 359.648,129.563C359.695,129.531 359.75,129.5 359.813,129.469L360.281,129.141C360.594,128.922 360.766,128.82 360.797,128.836C360.828,128.852 360.859,128.828 360.891,128.766C361.203,128.672 361.375,128.609 361.406,128.578C361.438,128.547 361.484,128.5 361.547,128.438C361.703,128.125 361.719,127.906 361.594,127.781C361.563,127.531 361.516,127.313 361.453,127.125C361.391,126.969 361.328,126.82 361.266,126.68C361.203,126.539 361.172,126.391 361.172,126.234C361.016,125.859 360.914,125.625 360.867,125.531C360.82,125.438 360.813,125.359 360.844,125.297C360.781,125.016 360.742,124.836 360.727,124.758C360.711,124.68 360.688,124.609 360.656,124.547C360.531,124.172 360.453,123.953 360.422,123.891C360.391,123.828 360.375,123.75 360.375,123.656C360.25,123.469 360.18,123.344 360.164,123.281C360.148,123.219 360.109,123.188 360.047,123.188C359.891,123.156 359.781,123.172 359.719,123.234C359.656,123.297 359.547,123.328 359.391,123.328Z" style="fill:url(#_Linear2);fill-rule:nonzero;"/>
            </g>
            <g transform="matrix(1,0,0,1,255.369,115.394)">
                <path d="M380.672,100.406C380.734,100.5 380.773,100.602 380.789,100.711C380.805,100.82 380.828,100.906 380.859,100.969C380.891,101.219 380.93,101.414 380.977,101.555C381.023,101.695 381.016,101.844 380.953,102C381.016,102.375 381.039,102.563 381.023,102.563C381.008,102.563 381,102.594 381,102.656L381,103.359C380.938,103.609 380.891,103.812 380.859,103.969C380.859,104.063 380.867,104.148 380.883,104.227C380.898,104.305 380.906,104.391 380.906,104.484C380.875,104.766 380.867,104.922 380.883,104.953C380.898,104.984 380.906,105.016 380.906,105.047C380.906,105.172 380.891,105.281 380.859,105.375C380.828,105.469 380.813,105.563 380.813,105.656C380.781,105.781 380.773,105.891 380.789,105.984C380.805,106.078 380.797,106.188 380.766,106.313C380.734,106.375 380.727,106.461 380.742,106.57C380.758,106.68 380.75,106.812 380.719,106.969C380.719,107.156 380.703,107.336 380.672,107.508C380.641,107.68 380.641,107.891 380.672,108.141C380.672,108.422 380.664,108.602 380.648,108.68C380.633,108.758 380.625,108.828 380.625,108.891C380.625,109.047 380.641,109.188 380.672,109.313C380.703,109.437 380.688,109.563 380.625,109.688C380.688,109.812 380.711,109.953 380.695,110.109C380.68,110.266 380.672,110.422 380.672,110.578C380.609,111.016 380.578,111.359 380.578,111.609C380.578,111.859 380.609,112.062 380.672,112.219C380.547,112.469 380.508,112.727 380.555,112.992C380.602,113.258 380.625,113.531 380.625,113.813C380.594,114.156 380.594,114.367 380.625,114.445C380.656,114.523 380.672,114.609 380.672,114.703C380.609,115.078 380.578,115.328 380.578,115.453C380.516,115.766 380.492,115.938 380.508,115.969C380.523,116 380.531,116.031 380.531,116.063L380.438,116.578C380.406,116.891 380.398,117.07 380.414,117.117C380.43,117.164 380.438,117.203 380.438,117.234C380.438,117.484 380.422,117.742 380.391,118.008C380.359,118.273 380.344,118.5 380.344,118.688L380.391,119.25C380.359,119.531 380.359,119.68 380.391,119.695C380.422,119.711 380.438,119.75 380.438,119.813C380.438,120.5 380.43,121.039 380.414,121.43C380.398,121.82 380.391,122.219 380.391,122.625C380.422,123 380.445,123.227 380.461,123.305C380.477,123.383 380.484,123.453 380.484,123.516C380.516,123.641 380.516,123.75 380.484,123.844C380.453,123.938 380.438,124.047 380.438,124.172C380.438,124.297 380.445,124.406 380.461,124.5C380.477,124.594 380.484,124.703 380.484,124.828L380.484,125.344C380.484,125.406 380.516,125.438 380.578,125.438C380.484,125.656 380.469,125.906 380.531,126.188C380.594,126.469 380.625,126.75 380.625,127.031C380.625,127.25 380.617,127.445 380.602,127.617C380.586,127.789 380.609,127.953 380.672,128.109C380.516,128.359 380.469,128.656 380.531,129C380.594,129.344 380.641,129.687 380.672,130.031C380.672,130.125 380.664,130.219 380.648,130.313C380.633,130.406 380.641,130.5 380.672,130.594C380.672,130.75 380.68,130.93 380.695,131.133C380.711,131.336 380.734,131.516 380.766,131.672C380.828,132.078 380.875,132.328 380.906,132.422C380.938,132.516 380.969,132.625 381,132.75L381,133.266C381.063,133.578 381.078,133.758 381.047,133.805C381.016,133.852 381.016,133.938 381.047,134.063C381.078,134.375 381.078,134.562 381.047,134.625C381.078,134.969 381.109,135.148 381.141,135.164C381.172,135.18 381.188,135.219 381.188,135.281C381.188,135.375 381.164,135.477 381.117,135.586C381.07,135.695 381.078,135.813 381.141,135.938C380.984,136.062 380.867,136.18 380.789,136.289C380.711,136.398 380.547,136.469 380.297,136.5C380.047,136.531 379.867,136.539 379.758,136.523C379.648,136.508 379.547,136.5 379.453,136.5C379.391,136.5 379.313,136.516 379.219,136.547C379.125,136.578 379.031,136.609 378.938,136.641C378.844,136.641 378.75,136.633 378.656,136.617C378.563,136.602 378.484,136.594 378.422,136.594C378.047,136.562 377.844,136.555 377.813,136.57C377.781,136.586 377.734,136.594 377.672,136.594L376.688,136.594C376.469,136.562 376.336,136.562 376.289,136.594C376.242,136.625 376.188,136.641 376.125,136.641C375.469,136.703 374.922,136.656 374.484,136.5C374.141,136.406 373.914,136.352 373.805,136.336C373.695,136.32 373.609,136.312 373.547,136.313C373.297,135.969 373.148,135.773 373.102,135.727C373.055,135.68 373.016,135.625 372.984,135.563C372.891,135.094 372.836,134.773 372.82,134.602C372.805,134.43 372.781,134.266 372.75,134.109C372.781,133.922 372.789,133.797 372.773,133.734C372.758,133.672 372.766,133.563 372.797,133.406C372.859,133.125 372.891,132.891 372.891,132.703C372.984,132.203 373.063,131.922 373.125,131.859C373.063,131.734 373.055,131.625 373.102,131.531C373.148,131.438 373.188,131.344 373.219,131.25C373.219,130.906 373.234,130.703 373.266,130.641C373.297,130.578 373.313,130.516 373.313,130.453C373.313,130.297 373.297,130.172 373.266,130.078C373.234,129.984 373.219,129.906 373.219,129.844C373.281,129.594 373.313,129.406 373.313,129.281C373.313,129.094 373.297,128.922 373.266,128.766C373.234,128.609 373.234,128.438 373.266,128.25C373.328,128 373.352,127.852 373.336,127.805C373.32,127.758 373.313,127.703 373.313,127.641C373.375,127.297 373.398,127.125 373.383,127.125C373.367,127.125 373.359,127.094 373.359,127.031C373.359,126.875 373.391,126.703 373.453,126.516L373.453,124.125C373.484,123.875 373.531,123.695 373.594,123.586C373.656,123.477 373.656,123.359 373.594,123.234C373.531,122.984 373.531,122.813 373.594,122.719C373.625,122.344 373.648,122.125 373.664,122.063C373.68,122 373.688,121.938 373.688,121.875C373.688,121.531 373.695,121.328 373.711,121.266C373.727,121.203 373.719,121.109 373.688,120.984C373.594,120.609 373.563,120.391 373.594,120.328C373.625,120.266 373.578,120.25 373.453,120.281C373.484,120 373.5,119.828 373.5,119.766L373.5,119.016C373.531,118.922 373.555,118.844 373.57,118.781C373.586,118.719 373.578,118.625 373.547,118.5C373.516,118.125 373.5,117.844 373.5,117.656C373.5,117.469 373.484,117.25 373.453,117C373.453,116.875 373.438,116.758 373.406,116.648C373.375,116.539 373.359,116.406 373.359,116.25C373.328,116 373.328,115.766 373.359,115.547C373.391,115.328 373.344,115.141 373.219,114.984C373.313,114.828 373.328,114.609 373.266,114.328C373.328,114.078 373.352,113.875 373.336,113.719C373.32,113.562 373.297,113.438 373.266,113.344C373.266,113.063 373.258,112.906 373.242,112.875C373.227,112.844 373.219,112.812 373.219,112.781C373.25,112.5 373.258,112.313 373.242,112.219C373.227,112.125 373.219,112.062 373.219,112.031C373.281,111.875 373.297,111.695 373.266,111.492C373.234,111.289 373.219,111.063 373.219,110.813C373.219,110.75 373.227,110.672 373.242,110.578C373.258,110.484 373.25,110.391 373.219,110.297C373.219,110.172 373.211,110.055 373.195,109.945C373.18,109.836 373.188,109.719 373.219,109.594C373.188,109.219 373.156,108.992 373.125,108.914C373.094,108.836 373.078,108.766 373.078,108.703C373.109,108.297 373.133,108.023 373.148,107.883C373.164,107.742 373.141,107.594 373.078,107.438C373.047,107.375 373.039,107.242 373.055,107.039C373.07,106.836 373.078,106.656 373.078,106.5C373.078,106.375 373.086,106.258 373.102,106.148C373.117,106.039 373.125,105.922 373.125,105.797L373.031,105.188L373.031,104.25C373.031,104 373.016,103.75 372.984,103.5C372.953,103.344 372.93,103.203 372.914,103.078C372.898,102.953 372.906,102.813 372.938,102.656C372.969,102.531 372.984,102.406 372.984,102.281C372.984,102.156 373,102.063 373.031,102C373.156,101.625 373.219,101.383 373.219,101.273C373.219,101.164 373.234,101.047 373.266,100.922C373.453,100.672 373.578,100.484 373.641,100.359C373.953,100.203 374.133,100.117 374.18,100.102C374.227,100.086 374.266,100.062 374.297,100.031C374.547,100.031 374.734,100.023 374.859,100.008C374.984,99.992 375.125,100 375.281,100.031C375.406,100.062 375.508,100.094 375.586,100.125C375.664,100.156 375.766,100.172 375.891,100.172C376.234,100.109 376.406,100.078 376.406,100.078C376.5,100.109 376.594,100.125 376.688,100.125C376.781,100.125 376.859,100.094 376.922,100.031C377.234,100.125 377.391,100.164 377.391,100.148C377.391,100.133 377.406,100.125 377.438,100.125C377.844,100.156 378.141,100.141 378.328,100.078C378.609,100.203 378.766,100.234 378.797,100.172C378.828,100.109 378.859,100.109 378.891,100.172C379.047,100.203 379.188,100.219 379.313,100.219C379.438,100.219 379.547,100.25 379.641,100.313C379.859,100.219 380.047,100.195 380.203,100.242C380.359,100.289 380.516,100.344 380.672,100.406Z" style="fill:url(#_Linear3);fill-rule:nonzero;"/>
            </g>
            <g transform="matrix(1,0,0,1,255.369,115.394)">
                <path d="M392.531,100.547C392.594,100.641 392.648,100.734 392.695,100.828C392.742,100.922 392.797,101.016 392.859,101.109C393.047,101.516 393.094,101.969 393,102.469C392.969,102.594 392.938,102.727 392.906,102.867C392.875,103.008 392.859,103.156 392.859,103.313C392.891,103.563 392.906,103.711 392.906,103.758C392.906,103.805 392.891,103.844 392.859,103.875C392.922,104.063 392.93,104.234 392.883,104.391C392.836,104.547 392.828,104.703 392.859,104.859C392.859,105.016 392.891,105.188 392.953,105.375C392.953,105.813 392.945,106.18 392.93,106.477C392.914,106.773 392.891,107.047 392.859,107.297C392.828,107.359 392.813,107.438 392.813,107.531C392.813,107.625 392.781,107.719 392.719,107.813C392.75,108.156 392.773,108.328 392.789,108.328C392.805,108.328 392.813,108.344 392.813,108.375C392.844,108.625 392.852,108.758 392.836,108.773C392.82,108.789 392.813,108.828 392.813,108.891C392.844,109.203 392.836,109.414 392.789,109.523C392.742,109.633 392.719,109.766 392.719,109.922L392.719,111.234C392.719,111.391 392.727,111.555 392.742,111.727C392.758,111.898 392.75,112.078 392.719,112.266C392.719,112.547 392.703,112.742 392.672,112.852C392.641,112.961 392.625,113.047 392.625,113.109C392.625,113.453 392.609,113.672 392.578,113.766C392.547,113.859 392.531,113.937 392.531,114C392.594,114.312 392.617,114.516 392.602,114.609C392.586,114.703 392.578,114.797 392.578,114.891L392.578,115.5C392.609,115.75 392.609,115.898 392.578,115.945C392.547,115.992 392.531,116.047 392.531,116.109C392.563,116.453 392.563,116.727 392.531,116.93C392.5,117.133 392.516,117.312 392.578,117.469L392.484,117.984C392.422,118.359 392.383,118.656 392.367,118.875C392.352,119.094 392.391,119.297 392.484,119.484C392.734,119.297 392.922,119.172 393.047,119.109C393.172,118.922 393.258,118.812 393.305,118.781C393.352,118.75 393.406,118.719 393.469,118.688C393.656,118.437 393.758,118.305 393.773,118.289C393.789,118.273 393.813,118.266 393.844,118.266C394.063,118.078 394.234,117.891 394.359,117.703C394.641,117.484 394.813,117.359 394.875,117.328C394.938,117.297 395,117.25 395.063,117.188C395.281,116.875 395.445,116.688 395.555,116.625C395.664,116.562 395.75,116.484 395.813,116.391C395.875,116.328 395.922,116.25 395.953,116.156C395.984,116.063 396.063,116 396.188,115.969C396.406,115.656 396.578,115.453 396.703,115.359C396.828,115.266 396.922,115.125 396.984,114.938C397.297,114.656 397.484,114.461 397.547,114.352C397.609,114.242 397.719,114.156 397.875,114.094L398.484,113.391C398.547,113.328 398.602,113.266 398.648,113.203C398.695,113.141 398.766,113.078 398.859,113.016C398.984,112.766 399.07,112.617 399.117,112.57C399.164,112.523 399.203,112.469 399.234,112.406C399.391,112.125 399.578,111.891 399.797,111.703C399.953,111.484 400.031,111.367 400.031,111.352C400.031,111.336 400.047,111.297 400.078,111.234C400.266,111.016 400.383,110.875 400.43,110.813C400.477,110.75 400.5,110.688 400.5,110.625C400.688,110.281 400.805,110.125 400.852,110.156C400.898,110.187 400.938,110.187 400.969,110.156C401.094,109.875 401.25,109.656 401.438,109.5C401.469,109.344 401.523,109.211 401.602,109.102C401.68,108.992 401.734,108.859 401.766,108.703C401.859,108.672 401.938,108.633 402,108.586C402.063,108.539 402.156,108.484 402.281,108.422C402.625,108.266 402.891,108.156 403.078,108.094C403.391,108.25 403.594,108.359 403.688,108.422C403.781,108.484 403.906,108.547 404.063,108.609L404.484,109.172C404.641,109.422 404.766,109.547 404.859,109.547C404.953,109.734 405.016,109.867 405.047,109.945C405.078,110.023 405.109,110.094 405.141,110.156L405.422,110.719C405.484,111 405.547,111.164 405.609,111.211C405.672,111.258 405.703,111.328 405.703,111.422C405.797,111.578 405.883,111.734 405.961,111.891C406.039,112.047 406.156,112.172 406.313,112.266C406.5,112.859 406.617,113.258 406.664,113.461C406.711,113.664 406.719,113.937 406.688,114.281L406.313,114.656C406.25,114.75 406.172,114.836 406.078,114.914C405.984,114.992 405.906,115.109 405.844,115.266L405.563,115.734C405.5,115.797 405.422,115.859 405.328,115.922C405.234,115.984 405.156,116.078 405.094,116.203C405,116.266 404.906,116.336 404.813,116.414C404.719,116.492 404.609,116.562 404.484,116.625C404.391,116.688 404.289,116.758 404.18,116.836C404.07,116.914 403.969,117.016 403.875,117.141C403.781,117.203 403.688,117.273 403.594,117.352C403.5,117.43 403.406,117.5 403.313,117.563C403.063,117.781 402.922,117.914 402.891,117.961C402.859,118.008 402.813,118.031 402.75,118.031C402.5,118.281 402.328,118.453 402.234,118.547C402.141,118.641 402.016,118.719 401.859,118.781C401.734,118.938 401.656,119.055 401.625,119.133C401.594,119.211 401.547,119.266 401.484,119.297C401.234,119.547 401.063,119.719 400.969,119.813C400.813,120 400.688,120.141 400.594,120.234C400.438,120.453 400.344,120.57 400.313,120.586C400.281,120.602 400.234,120.641 400.172,120.703C399.891,121.047 399.75,121.219 399.75,121.219C399.406,121.563 399.188,121.828 399.094,122.016C398.875,122.297 398.813,122.477 398.906,122.555C399,122.633 399.094,122.719 399.188,122.813C399.313,123.031 399.414,123.164 399.492,123.211C399.57,123.258 399.609,123.312 399.609,123.375C399.828,123.5 399.977,123.594 400.055,123.656C400.133,123.719 400.203,123.781 400.266,123.844C400.422,124.156 400.539,124.336 400.617,124.383C400.695,124.43 400.766,124.484 400.828,124.547C400.953,124.859 401.063,125.063 401.156,125.156C401.313,125.344 401.406,125.438 401.438,125.438C401.469,125.438 401.5,125.469 401.531,125.531C401.719,125.719 401.836,125.852 401.883,125.93C401.93,126.008 401.984,126.078 402.047,126.141C402.234,126.328 402.344,126.422 402.375,126.422C402.406,126.422 402.422,126.453 402.422,126.516C402.516,126.578 402.594,126.664 402.656,126.773C402.719,126.883 402.781,127 402.844,127.125C403.031,127.375 403.148,127.508 403.195,127.523C403.242,127.539 403.297,127.578 403.359,127.641C403.516,127.891 403.617,128.023 403.664,128.039C403.711,128.055 403.75,128.094 403.781,128.156C404.094,128.344 404.266,128.438 404.297,128.438L404.672,128.906C404.984,129.125 405.18,129.305 405.258,129.445C405.336,129.586 405.438,129.687 405.563,129.75C405.844,129.938 406.023,130.047 406.102,130.078C406.18,130.109 406.25,130.156 406.313,130.219C406.5,130.281 406.625,130.328 406.688,130.359C406.75,130.391 406.813,130.437 406.875,130.5C407.125,130.781 407.266,130.938 407.297,130.969C407.328,131 407.375,131.047 407.438,131.109C407.594,131.453 407.688,131.633 407.719,131.648C407.75,131.664 407.766,131.703 407.766,131.766C407.641,132.141 407.547,132.359 407.484,132.422C407.422,132.484 407.406,132.563 407.438,132.656C407.219,132.75 407.07,132.922 406.992,133.172C406.914,133.422 406.797,133.609 406.641,133.734C406.328,134.172 406.063,134.656 405.844,135.188C405.625,135.375 405.508,135.484 405.492,135.516C405.477,135.547 405.438,135.578 405.375,135.609C405.219,135.734 405.125,135.836 405.094,135.914C405.063,135.992 405,136.062 404.906,136.125C404.813,136.344 404.672,136.547 404.484,136.734C404.422,136.766 404.344,136.797 404.25,136.828C404.156,136.859 404.047,136.891 403.922,136.922C403.828,136.922 403.727,136.906 403.617,136.875C403.508,136.844 403.406,136.812 403.313,136.781C403.156,136.531 403.031,136.375 402.938,136.313C402.844,136.156 402.773,136.055 402.727,136.008C402.68,135.961 402.641,135.906 402.609,135.844C402.484,135.656 402.359,135.5 402.234,135.375C402.109,135.312 402.008,135.203 401.93,135.047C401.852,134.891 401.75,134.781 401.625,134.719C401.563,134.594 401.492,134.484 401.414,134.391C401.336,134.297 401.266,134.203 401.203,134.109C400.984,133.797 400.859,133.625 400.828,133.594C400.703,133.437 400.617,133.344 400.57,133.313C400.523,133.281 400.469,133.234 400.406,133.172C400.344,133.016 400.258,132.875 400.148,132.75C400.039,132.625 399.938,132.5 399.844,132.375C399.688,132.125 399.563,131.953 399.469,131.859C399.375,131.766 399.266,131.672 399.141,131.578C398.984,131.359 398.883,131.227 398.836,131.18C398.789,131.133 398.734,131.078 398.672,131.016C398.516,130.766 398.398,130.594 398.32,130.5C398.242,130.406 398.125,130.328 397.969,130.266C397.844,130.016 397.711,129.797 397.57,129.609C397.43,129.422 397.25,129.266 397.031,129.141C396.906,128.922 396.828,128.789 396.797,128.742C396.766,128.695 396.703,128.656 396.609,128.625C396.453,128.344 396.367,128.203 396.352,128.203C396.336,128.203 396.313,128.187 396.281,128.156C396.125,127.938 396.023,127.797 395.977,127.734C395.93,127.672 395.875,127.609 395.813,127.547C395.531,127.391 395.391,127.297 395.391,127.266C395.391,127.234 395.375,127.203 395.344,127.172C394.969,126.859 394.75,126.703 394.688,126.703C394.5,126.391 394.383,126.211 394.336,126.164C394.289,126.117 394.25,126.047 394.219,125.953C394.031,125.922 393.875,125.883 393.75,125.836C393.625,125.789 393.484,125.766 393.328,125.766C393.234,125.797 393.141,125.852 393.047,125.93C392.953,126.008 392.859,126.078 392.766,126.141C392.672,126.203 392.586,126.266 392.508,126.328C392.43,126.391 392.344,126.453 392.25,126.516L392.25,127.102C392.25,127.336 392.297,127.531 392.391,127.688C392.391,127.812 392.383,127.938 392.367,128.063C392.352,128.187 392.344,128.328 392.344,128.484C392.344,128.766 392.359,128.937 392.391,129C392.422,129.063 392.438,129.125 392.438,129.188C392.375,129.563 392.352,129.75 392.367,129.75C392.383,129.75 392.391,129.766 392.391,129.797C392.359,129.984 392.359,130.117 392.391,130.195C392.422,130.273 392.438,130.391 392.438,130.547C392.469,130.953 392.469,131.187 392.438,131.25C392.406,131.313 392.422,131.422 392.484,131.578C392.547,131.797 392.578,132.016 392.578,132.234C392.547,132.453 392.547,132.602 392.578,132.68C392.609,132.758 392.641,132.844 392.672,132.938C392.672,133.031 392.664,133.109 392.648,133.172C392.633,133.234 392.641,133.344 392.672,133.5C392.672,133.594 392.688,133.695 392.719,133.805C392.75,133.914 392.766,134.031 392.766,134.156C392.766,134.5 392.773,134.727 392.789,134.836C392.805,134.945 392.766,135.063 392.672,135.188C392.672,135.594 392.594,135.844 392.438,135.938C392.188,136.031 392.008,136.094 391.898,136.125C391.789,136.156 391.703,136.203 391.641,136.266C391.516,136.203 391.406,136.195 391.313,136.242C391.219,136.289 391.125,136.328 391.031,136.359C390.875,136.328 390.719,136.305 390.563,136.289C390.406,136.273 390.234,136.266 390.047,136.266C389.984,136.266 389.898,136.273 389.789,136.289C389.68,136.305 389.594,136.281 389.531,136.219C389.219,136.312 389.031,136.352 388.969,136.336C388.906,136.32 388.844,136.312 388.781,136.313C388.406,136.344 388.219,136.359 388.219,136.359C387.969,136.297 387.82,136.273 387.773,136.289C387.727,136.305 387.688,136.281 387.656,136.219C387.313,136.219 387.109,136.227 387.047,136.242C386.984,136.258 386.906,136.25 386.813,136.219C386.719,136.187 386.617,136.164 386.508,136.148C386.398,136.133 386.313,136.094 386.25,136.031C385.875,135.813 385.688,135.719 385.688,135.75L385.547,135.188C385.453,134.969 385.422,134.836 385.453,134.789C385.484,134.742 385.469,134.703 385.406,134.672C385.406,134.391 385.414,134.234 385.43,134.203C385.445,134.172 385.453,134.125 385.453,134.063C385.484,133.656 385.508,133.414 385.523,133.336C385.539,133.258 385.516,133.188 385.453,133.125L385.641,132.516C385.609,132.297 385.617,132.148 385.664,132.07C385.711,131.992 385.734,131.906 385.734,131.813C385.672,131.531 385.648,131.367 385.664,131.32C385.68,131.273 385.688,131.219 385.688,131.156C385.688,130.844 385.703,130.656 385.734,130.594C385.766,130.531 385.781,130.469 385.781,130.406C385.75,130.156 385.742,130.016 385.758,129.984C385.773,129.953 385.781,129.922 385.781,129.891C385.75,129.703 385.742,129.586 385.758,129.539C385.773,129.492 385.781,129.438 385.781,129.375C385.781,129.281 385.773,129.164 385.758,129.023C385.742,128.883 385.734,128.75 385.734,128.625C385.734,128.313 385.742,128.109 385.758,128.016C385.773,127.922 385.781,127.812 385.781,127.688C385.75,127.406 385.75,127.234 385.781,127.172C385.813,127.109 385.828,127.047 385.828,126.984C385.797,126.516 385.797,126.234 385.828,126.141C385.797,125.734 385.789,125.477 385.805,125.367C385.82,125.258 385.828,125.109 385.828,124.922C385.797,124.578 385.789,124.375 385.805,124.313C385.82,124.25 385.828,124.188 385.828,124.125C385.734,123.625 385.672,123.328 385.641,123.234C385.641,123.078 385.633,122.93 385.617,122.789C385.602,122.648 385.609,122.5 385.641,122.344C385.641,122 385.625,121.766 385.594,121.641C385.563,121.516 385.563,121.391 385.594,121.266C385.656,120.953 385.68,120.797 385.664,120.797C385.648,120.797 385.641,120.781 385.641,120.75C385.641,120.687 385.648,120.586 385.664,120.445C385.68,120.305 385.688,120.203 385.688,120.141C385.625,119.766 385.602,119.547 385.617,119.484C385.633,119.422 385.609,119.359 385.547,119.297C385.547,118.984 385.555,118.828 385.57,118.828C385.586,118.828 385.594,118.812 385.594,118.781C385.594,118.469 385.609,118.258 385.641,118.148C385.672,118.039 385.656,117.922 385.594,117.797C385.656,117.516 385.688,117.203 385.688,116.859L385.641,116.297C385.672,116.016 385.68,115.805 385.664,115.664C385.648,115.523 385.641,115.375 385.641,115.219C385.578,114.906 385.555,114.75 385.57,114.75C385.586,114.75 385.594,114.734 385.594,114.703C385.594,114.547 385.586,114.43 385.57,114.352C385.555,114.273 385.563,114.203 385.594,114.141C385.656,113.922 385.672,113.773 385.641,113.695C385.609,113.617 385.609,113.547 385.641,113.484C385.609,113.141 385.594,112.906 385.594,112.781C385.563,112.625 385.547,112.445 385.547,112.242L385.547,111.703C385.547,111.547 385.563,111.406 385.594,111.281C385.625,111.156 385.641,111.016 385.641,110.859C385.672,110.484 385.68,110.25 385.664,110.156C385.648,110.063 385.641,109.984 385.641,109.922L385.641,107.906C385.609,107.562 385.609,107.391 385.641,107.391C385.672,107.391 385.672,107.359 385.641,107.297C385.578,107.047 385.555,106.875 385.57,106.781C385.586,106.688 385.578,106.594 385.547,106.5C385.516,106.188 385.484,105.992 385.453,105.914C385.422,105.836 385.406,105.766 385.406,105.703C385.375,105.547 385.367,105.391 385.383,105.234C385.398,105.078 385.406,104.922 385.406,104.766C385.344,104.422 385.305,104.234 385.289,104.203C385.273,104.172 385.266,104.141 385.266,104.109C385.266,103.734 385.25,103.516 385.219,103.453C385.188,103.391 385.172,103.328 385.172,103.266C385.141,103.141 385.133,103.023 385.148,102.914C385.164,102.805 385.172,102.703 385.172,102.609C385.109,102.328 385.086,102.172 385.102,102.141C385.117,102.109 385.109,102.063 385.078,102C385.078,101.875 385.063,101.789 385.031,101.742C385,101.695 385,101.594 385.031,101.438C385.094,101.187 385.156,101.031 385.219,100.969C385.281,100.906 385.297,100.828 385.266,100.734C385.484,100.547 385.734,100.391 386.016,100.266C386.297,100.141 386.609,100.141 386.953,100.266C387.203,100.203 387.359,100.188 387.422,100.219C387.484,100.25 387.563,100.266 387.656,100.266C388.031,100.203 388.25,100.156 388.313,100.125C388.656,100.031 388.836,100.008 388.852,100.055C388.867,100.102 388.922,100.109 389.016,100.078C389.266,100.141 389.422,100.172 389.484,100.172L389.625,100.172C389.781,100.203 389.922,100.211 390.047,100.195C390.172,100.18 390.297,100.188 390.422,100.219C390.516,100.25 390.609,100.289 390.703,100.336C390.797,100.383 390.922,100.375 391.078,100.313C391.078,100.375 391.148,100.422 391.289,100.453C391.43,100.484 391.547,100.469 391.641,100.406C391.766,100.469 391.906,100.492 392.063,100.477C392.219,100.461 392.375,100.484 392.531,100.547Z" style="fill:url(#_Linear4);fill-rule:nonzero;"/>
            </g>
            <g transform="matrix(1,0,0,1,546.533,215.394)">
                <path d="M0.516,1.484C0.672,1.359 0.813,1.32 0.938,1.367C1.063,1.414 1.203,1.438 1.359,1.438C1.516,1.438 1.656,1.422 1.781,1.391C1.906,1.359 2.031,1.359 2.156,1.391C2.25,1.422 2.336,1.453 2.414,1.484C2.492,1.516 2.594,1.516 2.719,1.484C2.813,1.484 2.914,1.469 3.023,1.438C3.133,1.406 3.25,1.375 3.375,1.344C3.813,1.344 4.063,1.359 4.125,1.391C4.438,1.734 4.609,1.937 4.641,2C4.797,2.375 4.938,2.687 5.063,2.938C5.156,3.219 5.211,3.375 5.227,3.406C5.242,3.437 5.25,3.484 5.25,3.547L5.438,4.156C5.563,4.406 5.625,4.609 5.625,4.766C5.813,5.172 5.938,5.422 6,5.516C6.063,5.609 6.078,5.734 6.047,5.891L6.328,6.359C6.484,6.609 6.563,6.758 6.563,6.805C6.563,6.852 6.578,6.906 6.609,6.969C6.672,7.25 6.711,7.438 6.727,7.531C6.742,7.625 6.766,7.703 6.797,7.766C6.859,7.922 6.938,8.07 7.031,8.211C7.125,8.352 7.219,8.5 7.313,8.656C7.469,8.906 7.547,9.078 7.547,9.172C7.672,9.547 7.75,9.773 7.781,9.852C7.813,9.93 7.844,10 7.875,10.063C8.063,10.438 8.148,10.664 8.133,10.742C8.117,10.82 8.125,10.891 8.156,10.953C8.188,11.109 8.234,11.312 8.297,11.563C8.453,11.875 8.523,12.047 8.508,12.078C8.492,12.109 8.5,12.141 8.531,12.172C8.625,12.484 8.68,12.664 8.695,12.711C8.711,12.758 8.734,12.797 8.766,12.828C8.922,13.109 9.008,13.281 9.023,13.344C9.039,13.406 9.063,13.469 9.094,13.531C9.25,13.969 9.328,14.219 9.328,14.281C9.359,14.375 9.391,14.469 9.422,14.563C9.453,14.656 9.469,14.766 9.469,14.891C9.625,15.328 9.719,15.563 9.75,15.594C9.813,15.781 9.867,15.938 9.914,16.063C9.961,16.187 10,16.313 10.031,16.438L10.219,16.953C10.281,17.234 10.305,17.391 10.289,17.422C10.273,17.453 10.281,17.5 10.313,17.563C10.406,17.813 10.453,17.961 10.453,18.008C10.453,18.055 10.469,18.094 10.5,18.125C10.563,18.281 10.602,18.445 10.617,18.617C10.633,18.789 10.672,18.922 10.734,19.016C10.859,19.391 10.906,19.594 10.875,19.625C11,19.781 11.086,19.898 11.133,19.977C11.18,20.055 11.219,20.125 11.25,20.188C11.375,20.469 11.438,20.648 11.438,20.727C11.438,20.805 11.453,20.891 11.484,20.984C11.641,21.359 11.727,21.57 11.742,21.617C11.758,21.664 11.781,21.703 11.813,21.734C11.906,21.891 11.984,22.125 12.047,22.438C12.172,22.781 12.219,22.984 12.188,23.047L12.469,23.656L12.891,24.219L13.031,24.875C13.156,25.156 13.234,25.336 13.266,25.414C13.297,25.492 13.328,25.562 13.359,25.625C13.453,25.906 13.508,26.086 13.523,26.164C13.539,26.242 13.563,26.312 13.594,26.375C13.656,26.719 13.703,26.914 13.734,26.961C13.766,27.008 13.766,27.078 13.734,27.172C13.891,27.453 13.961,27.609 13.945,27.641C13.93,27.672 13.938,27.703 13.969,27.734C14.188,28.172 14.328,28.484 14.391,28.672C14.484,29.047 14.578,29.281 14.672,29.375C14.797,29.875 14.922,30.234 15.047,30.453C15.109,30.578 15.133,30.68 15.117,30.758C15.102,30.836 15.109,30.906 15.141,30.969C15.297,31.187 15.383,31.344 15.398,31.438C15.414,31.531 15.438,31.609 15.469,31.672C15.563,31.859 15.633,31.977 15.68,32.023C15.727,32.07 15.766,32.125 15.797,32.188L16.125,32.844C16.25,33.188 16.305,33.367 16.289,33.383C16.273,33.398 16.281,33.437 16.313,33.5C16.531,33.812 16.633,34.016 16.617,34.109C16.602,34.203 16.609,34.281 16.641,34.344C16.734,34.688 16.875,34.969 17.063,35.188C17.156,35.625 17.125,35.922 16.969,36.078C16.813,36.203 16.625,36.297 16.406,36.359C16.188,36.422 15.984,36.422 15.797,36.359C15.484,36.234 15.289,36.18 15.211,36.195C15.133,36.211 15.047,36.203 14.953,36.172C14.516,36.172 14.242,36.195 14.133,36.242C14.023,36.289 13.891,36.328 13.734,36.359C13.578,36.359 13.43,36.344 13.289,36.312C13.148,36.281 13,36.25 12.844,36.219C12.813,36.156 12.781,36.078 12.75,35.984C12.719,35.891 12.719,35.766 12.75,35.609C12.625,35.359 12.531,35.172 12.469,35.047C12.406,34.766 12.367,34.586 12.352,34.508C12.336,34.43 12.297,34.359 12.234,34.297C12.047,33.766 11.922,33.422 11.859,33.266C11.672,32.891 11.563,32.625 11.531,32.469C11.5,32.312 11.422,32.188 11.297,32.094C11.203,31.625 11.117,31.336 11.039,31.227C10.961,31.117 10.891,31 10.828,30.875C10.672,30.531 10.594,30.344 10.594,30.313C10.5,30 10.438,29.836 10.406,29.82C10.375,29.805 10.344,29.766 10.313,29.703C10.25,29.484 10.195,29.336 10.148,29.258C10.102,29.18 10.078,29.063 10.078,28.906C9.891,28.656 9.805,28.508 9.82,28.461C9.836,28.414 9.828,28.359 9.797,28.297C9.672,28.109 9.609,27.969 9.609,27.875C9.609,27.781 9.594,27.703 9.563,27.641C9.438,27.266 9.344,27.047 9.281,26.984C9.188,26.672 9.156,26.484 9.188,26.422C9.063,26.203 8.969,26.031 8.906,25.906C8.844,25.781 8.797,25.688 8.766,25.625C8.734,25.562 8.703,25.484 8.672,25.391C8.578,24.859 8.5,24.516 8.438,24.359C8.375,24.203 8.313,24.047 8.25,23.891L8.109,23.375C8.016,23.25 7.977,23.148 7.992,23.07C8.008,22.992 7.984,22.922 7.922,22.859C7.828,22.672 7.781,22.539 7.781,22.461C7.781,22.383 7.734,22.344 7.641,22.344C7.578,22 7.547,21.781 7.547,21.688C7.422,21.281 7.352,21.062 7.336,21.031C7.32,21 7.297,20.953 7.266,20.891C7.234,20.828 7.211,20.742 7.195,20.633C7.18,20.523 7.156,20.438 7.125,20.375C7.063,20.25 7.016,20.141 6.984,20.047C6.953,19.953 6.906,19.844 6.844,19.719C6.781,19.438 6.734,19.242 6.703,19.133C6.672,19.023 6.656,18.922 6.656,18.828C6.563,18.734 6.492,18.617 6.445,18.477C6.398,18.336 6.344,18.203 6.281,18.078C6.156,17.734 6.086,17.563 6.07,17.563C6.055,17.563 6.031,17.531 6,17.469C5.938,17.219 5.906,17.063 5.906,17C5.906,16.937 5.891,16.875 5.859,16.813C5.703,16.5 5.625,16.336 5.625,16.32C5.625,16.305 5.609,16.281 5.578,16.25C5.641,16.156 5.641,16.063 5.578,15.969C5.516,15.875 5.469,15.781 5.438,15.688C5.375,15.437 5.328,15.297 5.297,15.266C5.266,15.234 5.25,15.188 5.25,15.125C5.188,15 5.141,14.898 5.109,14.82C5.078,14.742 5.031,14.656 4.969,14.563L4.828,14C4.703,13.625 4.625,13.422 4.594,13.391C4.563,13.359 4.547,13.328 4.547,13.297C4.453,12.953 4.414,12.758 4.43,12.711C4.445,12.664 4.438,12.609 4.406,12.547C4.313,12.203 4.242,12.016 4.195,11.984C4.148,11.953 4.156,11.906 4.219,11.844L3.984,11.375C3.953,11.094 3.922,10.922 3.891,10.859C3.797,10.609 3.75,10.469 3.75,10.438C3.75,10.406 3.734,10.359 3.703,10.297C3.609,10.016 3.539,9.836 3.492,9.758C3.445,9.68 3.438,9.594 3.469,9.5C3.406,9.406 3.359,9.313 3.328,9.219C3.297,9.125 3.266,9 3.234,8.844C3.078,8.531 2.953,8.359 2.859,8.328C2.797,7.891 2.734,7.578 2.672,7.391C2.578,7.141 2.516,6.992 2.484,6.945C2.453,6.898 2.422,6.844 2.391,6.781C2.234,6.437 2.148,6.227 2.133,6.148C2.117,6.07 2.078,5.984 2.016,5.891C1.953,5.766 1.906,5.664 1.875,5.586C1.844,5.508 1.828,5.438 1.828,5.375C1.641,5 1.508,4.719 1.43,4.531C1.352,4.344 1.281,4.156 1.219,3.969C1.219,3.625 1.203,3.43 1.172,3.383C1.141,3.336 1.094,3.281 1.031,3.219C0.844,3 0.734,2.766 0.703,2.516C0.641,2.234 0.578,2.031 0.516,1.906C0.453,1.781 0.453,1.641 0.516,1.484Z" style="fill:url(#_Linear5);fill-rule:nonzero;"/>
            </g>
            <g transform="matrix(1,0,0,1,539.696,215.394)">
                <path d="M0.516,1.484C0.672,1.359 0.813,1.32 0.938,1.367C1.063,1.414 1.203,1.438 1.359,1.438C1.516,1.438 1.656,1.422 1.781,1.391C1.906,1.359 2.031,1.359 2.156,1.391C2.25,1.422 2.336,1.453 2.414,1.484C2.492,1.516 2.594,1.516 2.719,1.484C2.813,1.484 2.914,1.469 3.023,1.438C3.133,1.406 3.25,1.375 3.375,1.344C3.813,1.344 4.063,1.359 4.125,1.391C4.438,1.734 4.609,1.937 4.641,2C4.797,2.375 4.938,2.687 5.063,2.938C5.156,3.219 5.211,3.375 5.227,3.406C5.242,3.437 5.25,3.484 5.25,3.547L5.438,4.156C5.563,4.406 5.625,4.609 5.625,4.766C5.813,5.172 5.938,5.422 6,5.516C6.063,5.609 6.078,5.734 6.047,5.891L6.328,6.359C6.484,6.609 6.563,6.758 6.563,6.805C6.563,6.852 6.578,6.906 6.609,6.969C6.672,7.25 6.711,7.438 6.727,7.531C6.742,7.625 6.766,7.703 6.797,7.766C6.859,7.922 6.938,8.07 7.031,8.211C7.125,8.352 7.219,8.5 7.313,8.656C7.469,8.906 7.547,9.078 7.547,9.172C7.672,9.547 7.75,9.773 7.781,9.852C7.813,9.93 7.844,10 7.875,10.063C8.063,10.438 8.148,10.664 8.133,10.742C8.117,10.82 8.125,10.891 8.156,10.953C8.188,11.109 8.234,11.312 8.297,11.563C8.453,11.875 8.523,12.047 8.508,12.078C8.492,12.109 8.5,12.141 8.531,12.172C8.625,12.484 8.68,12.664 8.695,12.711C8.711,12.758 8.734,12.797 8.766,12.828C8.922,13.109 9.008,13.281 9.023,13.344C9.039,13.406 9.063,13.469 9.094,13.531C9.25,13.969 9.328,14.219 9.328,14.281C9.359,14.375 9.391,14.469 9.422,14.563C9.453,14.656 9.469,14.766 9.469,14.891C9.625,15.328 9.719,15.563 9.75,15.594C9.813,15.781 9.867,15.938 9.914,16.063C9.961,16.187 10,16.313 10.031,16.438L10.219,16.953C10.281,17.234 10.305,17.391 10.289,17.422C10.273,17.453 10.281,17.5 10.313,17.563C10.406,17.813 10.453,17.961 10.453,18.008C10.453,18.055 10.469,18.094 10.5,18.125C10.563,18.281 10.602,18.445 10.617,18.617C10.633,18.789 10.672,18.922 10.734,19.016C10.859,19.391 10.906,19.594 10.875,19.625C11,19.781 11.086,19.898 11.133,19.977C11.18,20.055 11.219,20.125 11.25,20.188C11.375,20.469 11.438,20.648 11.438,20.727C11.438,20.805 11.453,20.891 11.484,20.984C11.641,21.359 11.727,21.57 11.742,21.617C11.758,21.664 11.781,21.703 11.813,21.734C11.906,21.891 11.984,22.125 12.047,22.438C12.172,22.781 12.219,22.984 12.188,23.047L12.469,23.656L12.891,24.219L13.031,24.875C13.156,25.156 13.234,25.336 13.266,25.414C13.297,25.492 13.328,25.562 13.359,25.625C13.453,25.906 13.508,26.086 13.523,26.164C13.539,26.242 13.563,26.312 13.594,26.375C13.656,26.719 13.703,26.914 13.734,26.961C13.766,27.008 13.766,27.078 13.734,27.172C13.891,27.453 13.961,27.609 13.945,27.641C13.93,27.672 13.938,27.703 13.969,27.734C14.188,28.172 14.328,28.484 14.391,28.672C14.484,29.047 14.578,29.281 14.672,29.375C14.797,29.875 14.922,30.234 15.047,30.453C15.109,30.578 15.133,30.68 15.117,30.758C15.102,30.836 15.109,30.906 15.141,30.969C15.297,31.187 15.383,31.344 15.398,31.438C15.414,31.531 15.438,31.609 15.469,31.672C15.563,31.859 15.633,31.977 15.68,32.023C15.727,32.07 15.766,32.125 15.797,32.188L16.125,32.844C16.25,33.188 16.305,33.367 16.289,33.383C16.273,33.398 16.281,33.437 16.313,33.5C16.531,33.812 16.633,34.016 16.617,34.109C16.602,34.203 16.609,34.281 16.641,34.344C16.734,34.688 16.875,34.969 17.063,35.188C17.156,35.625 17.125,35.922 16.969,36.078C16.813,36.203 16.625,36.297 16.406,36.359C16.188,36.422 15.984,36.422 15.797,36.359C15.484,36.234 15.289,36.18 15.211,36.195C15.133,36.211 15.047,36.203 14.953,36.172C14.516,36.172 14.242,36.195 14.133,36.242C14.023,36.289 13.891,36.328 13.734,36.359C13.578,36.359 13.43,36.344 13.289,36.312C13.148,36.281 13,36.25 12.844,36.219C12.813,36.156 12.781,36.078 12.75,35.984C12.719,35.891 12.719,35.766 12.75,35.609C12.625,35.359 12.531,35.172 12.469,35.047C12.406,34.766 12.367,34.586 12.352,34.508C12.336,34.43 12.297,34.359 12.234,34.297C12.047,33.766 11.922,33.422 11.859,33.266C11.672,32.891 11.563,32.625 11.531,32.469C11.5,32.312 11.422,32.188 11.297,32.094C11.203,31.625 11.117,31.336 11.039,31.227C10.961,31.117 10.891,31 10.828,30.875C10.672,30.531 10.594,30.344 10.594,30.313C10.5,30 10.438,29.836 10.406,29.82C10.375,29.805 10.344,29.766 10.313,29.703C10.25,29.484 10.195,29.336 10.148,29.258C10.102,29.18 10.078,29.063 10.078,28.906C9.891,28.656 9.805,28.508 9.82,28.461C9.836,28.414 9.828,28.359 9.797,28.297C9.672,28.109 9.609,27.969 9.609,27.875C9.609,27.781 9.594,27.703 9.563,27.641C9.438,27.266 9.344,27.047 9.281,26.984C9.188,26.672 9.156,26.484 9.188,26.422C9.063,26.203 8.969,26.031 8.906,25.906C8.844,25.781 8.797,25.688 8.766,25.625C8.734,25.562 8.703,25.484 8.672,25.391C8.578,24.859 8.5,24.516 8.438,24.359C8.375,24.203 8.313,24.047 8.25,23.891L8.109,23.375C8.016,23.25 7.977,23.148 7.992,23.07C8.008,22.992 7.984,22.922 7.922,22.859C7.828,22.672 7.781,22.539 7.781,22.461C7.781,22.383 7.734,22.344 7.641,22.344C7.578,22 7.547,21.781 7.547,21.688C7.422,21.281 7.352,21.062 7.336,21.031C7.32,21 7.297,20.953 7.266,20.891C7.234,20.828 7.211,20.742 7.195,20.633C7.18,20.523 7.156,20.438 7.125,20.375C7.063,20.25 7.016,20.141 6.984,20.047C6.953,19.953 6.906,19.844 6.844,19.719C6.781,19.438 6.734,19.242 6.703,19.133C6.672,19.023 6.656,18.922 6.656,18.828C6.563,18.734 6.492,18.617 6.445,18.477C6.398,18.336 6.344,18.203 6.281,18.078C6.156,17.734 6.086,17.563 6.07,17.563C6.055,17.563 6.031,17.531 6,17.469C5.938,17.219 5.906,17.063 5.906,17C5.906,16.937 5.891,16.875 5.859,16.813C5.703,16.5 5.625,16.336 5.625,16.32C5.625,16.305 5.609,16.281 5.578,16.25C5.641,16.156 5.641,16.063 5.578,15.969C5.516,15.875 5.469,15.781 5.438,15.688C5.375,15.437 5.328,15.297 5.297,15.266C5.266,15.234 5.25,15.188 5.25,15.125C5.188,15 5.141,14.898 5.109,14.82C5.078,14.742 5.031,14.656 4.969,14.563L4.828,14C4.703,13.625 4.625,13.422 4.594,13.391C4.563,13.359 4.547,13.328 4.547,13.297C4.453,12.953 4.414,12.758 4.43,12.711C4.445,12.664 4.438,12.609 4.406,12.547C4.313,12.203 4.242,12.016 4.195,11.984C4.148,11.953 4.156,11.906 4.219,11.844L3.984,11.375C3.953,11.094 3.922,10.922 3.891,10.859C3.797,10.609 3.75,10.469 3.75,10.438C3.75,10.406 3.734,10.359 3.703,10.297C3.609,10.016 3.539,9.836 3.492,9.758C3.445,9.68 3.438,9.594 3.469,9.5C3.406,9.406 3.359,9.313 3.328,9.219C3.297,9.125 3.266,9 3.234,8.844C3.078,8.531 2.953,8.359 2.859,8.328C2.797,7.891 2.734,7.578 2.672,7.391C2.578,7.141 2.516,6.992 2.484,6.945C2.453,6.898 2.422,6.844 2.391,6.781C2.234,6.437 2.148,6.227 2.133,6.148C2.117,6.07 2.078,5.984 2.016,5.891C1.953,5.766 1.906,5.664 1.875,5.586C1.844,5.508 1.828,5.438 1.828,5.375C1.641,5 1.508,4.719 1.43,4.531C1.352,4.344 1.281,4.156 1.219,3.969C1.219,3.625 1.203,3.43 1.172,3.383C1.141,3.336 1.094,3.281 1.031,3.219C0.844,3 0.734,2.766 0.703,2.516C0.641,2.234 0.578,2.031 0.516,1.906C0.453,1.781 0.453,1.641 0.516,1.484Z" style="fill:url(#_Linear6);fill-rule:nonzero;"/>
            </g>
        </g>
    </g>
    <defs>
        <linearGradient id="_Linear1" x1="0" y1="0" x2="1" y2="0" gradientUnits="userSpaceOnUse" gradientTransform="matrix(107.298,68.5,-68.5,107.298,300,87.9442)"><stop offset="0" style="stop-color:rgb(83,83,83);stop-opacity:1"/><stop offset="0.42" style="stop-color:rgb(70,70,70);stop-opacity:1"/><stop offset="1" style="stop-color:rgb(41,41,41);stop-opacity:1"/></linearGradient>
        <linearGradient id="_Linear2" x1="0" y1="0" x2="1" y2="0" gradientUnits="userSpaceOnUse" gradientTransform="matrix(107.298,68.5,-68.5,107.298,300,87.9442)"><stop offset="0" style="stop-color:rgb(83,83,83);stop-opacity:1"/><stop offset="0.42" style="stop-color:rgb(70,70,70);stop-opacity:1"/><stop offset="1" style="stop-color:rgb(41,41,41);stop-opacity:1"/></linearGradient>
        <linearGradient id="_Linear3" x1="0" y1="0" x2="1" y2="0" gradientUnits="userSpaceOnUse" gradientTransform="matrix(107.298,68.5,-68.5,107.298,300,87.9442)"><stop offset="0" style="stop-color:rgb(83,83,83);stop-opacity:1"/><stop offset="0.42" style="stop-color:rgb(70,70,70);stop-opacity:1"/><stop offset="1" style="stop-color:rgb(41,41,41);stop-opacity:1"/></linearGradient>
        <linearGradient id="_Linear4" x1="0" y1="0" x2="1" y2="0" gradientUnits="userSpaceOnUse" gradientTransform="matrix(107.298,68.5,-68.5,107.298,300,87.9442)"><stop offset="0" style="stop-color:rgb(83,83,83);stop-opacity:1"/><stop offset="0.42" style="stop-color:rgb(70,70,70);stop-opacity:1"/><stop offset="1" style="stop-color:rgb(41,41,41);stop-opacity:1"/></linearGradient>
        <linearGradient id="_Linear5" x1="0" y1="0" x2="1" y2="0" gradientUnits="userSpaceOnUse" gradientTransform="matrix(17.6729,66,-66,17.6729,0,-10.5558)"><stop offset="0" style="stop-color:rgb(56,255,173);stop-opacity:1"/><stop offset="1" style="stop-color:rgb(0,198,116);stop-opacity:1"/></linearGradient>
        <linearGradient id="_Linear6" x1="0" y1="0" x2="1" y2="0" gradientUnits="userSpaceOnUse" gradientTransform="matrix(10.8364,36.0792,-36.0792,10.8364,6.83645,9.74365e-07)"><stop offset="0" style="stop-color:rgb(0,228,255);stop-opacity:1"/><stop offset="1" style="stop-color:rgb(30,188,253);stop-opacity:1"/></linearGradient>
    </defs>
</svg>
